<?xml version="1.0" standalone="no"?>
<!DOCTYPE svg PUBLIC "-//W3C//DTD SVG 20010904//EN"
 "http://www.w3.org/TR/2001/REC-SVG-20010904/DTD/svg10.dtd">
<svg version="1.0" xmlns="http://www.w3.org/2000/svg"
 width="507.000000pt" height="492.000000pt" viewBox="0 0 507.000000 492.000000"
 preserveAspectRatio="xMidYMid meet">

<g transform="translate(0.000000,492.000000) scale(0.100000,-0.100000)"
fill="#000000" stroke="none">
<path d="M2310 4810 c-117 -16 -273 -51 -365 -81 -203 -67 -513 -241 -685
-385 -288 -241 -510 -583 -641 -989 -107 -329 -136 -819 -69 -1155 96 -478
320 -891 656 -1210 103 -98 183 -157 327 -242 332 -197 633 -281 1002 -282
371 0 656 80 990 277 55 33 109 68 121 78 11 11 24 19 29 19 22 0 164 122 262
224 117 122 262 327 352 496 64 122 162 368 195 490 83 309 92 611 30 1000
-42 262 -90 415 -203 639 -151 300 -304 494 -541 683 -237 190 -516 333 -761
391 -199 48 -214 50 -424 53 -115 1 -239 -1 -275 -6z m165 -104 c22 -33 25
-43 15 -65 -6 -15 -10 -64 -9 -109 3 -109 -6 -119 -116 -126 -44 -3 -107 -14
-139 -26 -33 -11 -74 -20 -91 -20 -18 0 -38 -7 -45 -14 -17 -22 -108 -49 -140
-43 -23 5 -29 2 -34 -18 -6 -24 -73 -71 -141 -99 -19 -8 -35 -19 -35 -25 0
-12 -94 -81 -111 -81 -8 0 -20 -13 -27 -28 -12 -29 -97 -82 -130 -82 -13 0
-21 -13 -30 -45 -20 -74 -52 -133 -98 -180 -51 -53 -96 -61 -132 -22 -29 31
-46 77 -32 91 7 7 10 7 10 -1 0 -14 46 -63 60 -63 22 0 98 82 123 134 48 98
47 106 -21 166 -55 48 -82 85 -82 110 0 24 37 5 105 -55 41 -36 83 -65 93 -65
49 0 114 54 106 88 -2 9 0 24 6 32 9 13 12 13 25 -4 13 -18 16 -17 57 15 49
38 59 50 52 61 -7 10 14 48 26 48 6 0 10 -7 10 -15 0 -8 6 -15 13 -15 21 0
112 64 112 80 0 17 -64 62 -77 54 -5 -3 -20 2 -33 10 -27 18 -33 53 -13 89 24
47 170 227 179 222 22 -14 4 -54 -61 -141 l-70 -94 84 -56 84 -56 54 20 c34
13 54 26 57 38 7 41 41 60 41 24 0 -24 3 -24 75 -6 66 18 75 23 75 41 0 8 9
19 19 25 17 8 20 6 23 -13 2 -13 10 -22 21 -21 9 0 38 1 63 2 l47 2 -7 78 c-4
42 -12 94 -17 115 -8 31 -7 43 6 64 9 13 18 23 20 21 2 -2 16 -21 30 -42z
m-344 -136 c18 -10 18 -13 4 -40 -17 -33 -19 -34 -45 -20 -15 8 -21 6 -30 -10
-12 -23 -29 -25 -54 -7 -15 11 -16 17 -5 40 11 24 17 27 41 22 20 -5 30 -2 34
9 7 18 27 20 55 6z m602 -37 c8 -10 18 -30 22 -45 6 -21 14 -28 46 -33 50 -9
61 -1 47 30 -12 26 2 55 27 55 35 0 34 -92 -1 -127 -23 -23 -30 -25 -82 -19
-55 6 -58 5 -90 -28 -64 -66 -154 -86 -223 -51 -43 23 -36 33 24 33 31 0 74 9
107 22 65 25 84 40 51 40 -57 0 -75 34 -46 90 26 50 87 67 118 33z m438 -114
c32 -34 34 -41 19 -70 -9 -16 -6 -21 24 -36 30 -14 42 -14 74 -5 22 7 49 12
60 12 30 0 52 -37 52 -88 0 -31 5 -44 18 -49 9 -3 34 -21 54 -39 20 -18 51
-40 68 -49 l31 -16 -15 30 c-9 16 -29 39 -46 51 -49 35 -34 73 20 50 27 -11
42 -30 105 -130 15 -25 44 -65 63 -89 33 -40 34 -45 18 -57 -17 -12 -17 -14 0
-39 20 -31 51 -45 100 -45 77 0 106 -45 75 -116 -17 -38 -24 -44 -51 -44 -28
0 -34 6 -56 54 -18 40 -32 57 -54 64 -39 14 -90 86 -90 127 0 38 -25 64 -100
101 -30 15 -84 47 -120 72 -35 24 -74 45 -87 47 -23 2 -58 37 -68 68 -4 9 -15
17 -26 17 -28 0 -95 36 -112 61 -27 37 -87 1 -87 -51 0 -59 90 -127 238 -180
107 -39 27 -57 -89 -20 -131 40 -217 127 -202 204 8 43 38 90 68 106 22 12 23
15 11 29 -17 18 -11 32 19 49 33 19 55 14 86 -19z m-806 -61 c30 -13 31 -19 7
-48 -15 -19 -22 -21 -40 -11 -17 9 -23 8 -36 -10 -14 -21 -16 -21 -40 -5 -30
19 -31 24 -10 54 13 18 19 20 36 11 16 -9 24 -8 36 5 19 19 15 19 47 4z m465
-58 c-32 -25 -34 -25 -55 7 -17 26 -17 27 5 45 23 19 24 19 49 -7 l26 -26 -25
-19z m-1112 28 c-3 -29 -7 -33 -35 -36 -27 -3 -33 0 -33 17 0 37 11 51 42 51
27 0 29 -2 26 -32z m1045 -256 c55 -37 69 -75 45 -127 -9 -19 -19 -25 -43 -25
-52 0 -93 -11 -99 -26 -3 -8 0 -49 6 -93 9 -63 8 -83 -3 -107 -20 -40 -33 -33
-40 23 -3 26 -11 79 -18 117 -12 69 -9 99 14 126 7 8 16 32 19 53 13 71 63 95
119 59z m-1033 -37 c0 -32 -2 -35 -30 -35 -25 0 -30 -4 -30 -25 0 -22 -4 -25
-35 -25 -36 0 -40 6 -29 48 4 15 14 22 30 22 17 0 25 7 30 25 5 19 13 25 35
25 26 0 29 -3 29 -35z m-492 -23 c2 -13 11 -22 22 -22 25 0 31 -22 21 -76 -12
-65 -31 -80 -31 -25 0 23 -4 40 -9 36 -16 -9 -43 26 -37 49 3 12 6 32 6 44 0
30 24 24 28 -6z m1266 -4 c18 -25 21 -80 6 -107 -19 -36 -107 -64 -207 -65
-78 -1 -95 2 -120 20 -32 24 -42 78 -22 125 16 41 29 36 29 -11 0 -34 4 -42
30 -55 38 -20 127 -19 187 1 59 20 71 30 55 46 -21 21 -8 68 19 68 5 0 15 -10
23 -22z m1001 -9 c7 -33 -4 -49 -36 -49 -19 0 -29 20 -29 56 0 20 5 24 29 24
25 0 30 -5 36 -31z m-1115 -223 c0 -14 -31 -46 -45 -46 -7 0 -20 9 -30 20 -18
20 -18 21 5 45 22 23 23 23 46 7 13 -9 24 -21 24 -26z m157 -88 c17 -18 40
-52 52 -75 21 -41 42 -144 36 -175 -2 -9 5 -24 16 -34 21 -19 24 -45 9 -73 -6
-12 -5 -29 3 -50 10 -27 9 -37 -5 -62 -9 -16 -13 -29 -8 -29 6 0 10 -11 10
-25 l0 -25 -136 0 -136 0 3 33 c1 17 -5 50 -15 72 -35 77 -3 163 74 195 37 15
50 64 50 184 0 53 4 96 8 96 4 0 22 -15 39 -32z m-601 -409 c165 -29 327 -107
442 -212 29 -28 42 -35 42 -23 0 14 14 16 95 16 87 0 95 -2 95 -19 0 -12 -9
-22 -22 -25 -13 -3 39 -3 114 -1 145 4 153 2 137 -41 -7 -19 -1 -25 52 -49 50
-22 145 -44 197 -45 19 0 14 -27 -10 -49 l-21 -21 38 -15 c53 -23 204 -38 309
-32 l88 6 -6 -31 c-16 -78 -76 -128 -155 -128 l-42 0 6 -34 c4 -19 2 -43 -4
-54 -14 -26 -72 -45 -111 -37 -28 6 -30 5 -30 -22 0 -40 -17 -53 -66 -53 -39
0 -43 -2 -49 -31 -9 -39 -44 -57 -80 -41 -36 16 -45 15 -45 -6 0 -33 -35 -55
-76 -49 -31 5 -40 2 -56 -18 -29 -37 -57 -31 -131 30 l-67 55 -2 -177 -3 -178
-57 -3 -58 -3 0 510 0 510 53 4 c44 3 41 4 -21 5 -67 2 -72 1 -58 -14 24 -23
21 -47 -3 -34 -11 5 -23 15 -26 20 -10 17 -142 99 -193 121 -141 61 -364 94
-495 75 l-47 -7 0 -425 0 -424 43 0 c23 0 80 -9 127 -19 209 -47 388 -142 534
-286 42 -40 76 -67 76 -59 0 12 13 14 68 12 l67 -3 2 -35 c0 -19 8 -71 17
-115 l16 -79 -30 -31 c-16 -16 -39 -52 -51 -80 l-22 -50 -15 43 c-7 23 -30 59
-49 80 l-35 37 15 84 14 83 -80 64 c-142 112 -366 208 -547 234 -36 5 -108 10
-161 10 l-96 0 -7 92 c-8 118 -8 724 0 861 7 104 7 106 33 110 57 9 291 6 347
-4z m674 -164 c0 -8 -9 -15 -20 -15 -13 0 -18 -5 -14 -15 5 -12 -5 -15 -55
-15 -45 0 -61 4 -61 14 0 7 -9 16 -20 19 -11 3 -20 10 -20 16 0 7 33 11 95 11
78 0 95 -3 95 -15z m-1768 -175 c12 -30 22 -40 40 -40 13 0 33 -3 46 -6 23 -7
23 -7 -11 -35 -32 -27 -34 -31 -29 -75 l5 -46 -39 20 c-38 20 -40 20 -74 1
-19 -10 -38 -18 -41 -19 -4 0 -3 19 2 43 7 38 5 45 -22 72 -16 17 -29 34 -29
38 0 4 18 7 40 7 36 0 41 3 60 40 11 22 24 40 28 40 4 0 15 -18 24 -40z m3408
0 c16 -32 26 -40 48 -40 49 0 55 -13 21 -46 -27 -26 -30 -33 -24 -71 7 -48 3
-51 -41 -24 -29 18 -31 18 -65 0 -19 -10 -38 -18 -42 -19 -4 0 -5 21 -1 48 5
42 3 50 -20 71 -34 32 -33 41 7 41 40 0 50 7 71 48 9 17 19 32 21 32 3 0 14
-18 25 -40z m-210 -24 c0 -3 -4 -8 -10 -11 -5 -3 -10 -1 -10 4 0 6 5 11 10 11
6 0 10 -2 10 -4z m-3443 -36 c1 -11 -2 -22 -8 -25 -10 -7 -13 28 -2 38 9 9 9
10 10 -13z m109 -132 c46 -50 133 -64 190 -29 33 20 64 74 64 113 0 18 2 20
10 8 16 -25 11 -99 -10 -139 -55 -109 -215 -114 -283 -9 -30 46 -35 94 -15
149 l12 34 7 -53 c4 -29 15 -62 25 -74z m3379 102 c-10 -30 11 -83 46 -116 27
-26 37 -29 94 -29 57 0 67 3 95 30 16 16 35 47 42 70 l11 40 10 -32 c14 -47 0
-99 -39 -142 -100 -111 -284 -46 -284 101 0 26 5 59 12 73 13 30 22 33 13 5z
m375 16 c0 -3 -4 -8 -10 -11 -5 -3 -10 -1 -10 4 0 6 5 11 10 11 6 0 10 -2 10
-4z m-3886 -61 c5 -22 4 -26 -4 -15 -5 8 -10 24 -10 34 0 26 6 18 14 -19z
m493 -654 c74 -34 106 -138 63 -208 -35 -58 -54 -35 -44 52 6 48 4 56 -19 79
-40 40 -99 36 -144 -9 -30 -30 -35 -40 -29 -68 7 -36 38 -67 68 -67 16 0 18 4
12 23 -15 44 -10 72 13 75 19 3 24 -6 44 -67 27 -83 23 -91 -42 -93 -91 -1
-149 56 -149 147 0 57 22 97 67 125 57 34 101 37 160 11z m3086 -107 c14 -5
13 -12 -3 -57 -10 -29 -21 -60 -25 -69 -5 -14 -2 -18 12 -18 29 0 43 20 43 60
0 19 5 42 10 50 16 23 40 -15 40 -63 0 -53 -52 -107 -101 -107 -45 0 -97 33
-113 72 -35 82 52 165 137 132z m-3023 -204 c6 -10 9 -23 8 -27 -2 -4 7 -18
20 -30 28 -29 28 -37 -2 -51 -21 -9 -27 -8 -40 14 -21 31 -44 30 -108 -2 -49
-25 -52 -25 -65 -8 -7 10 -13 23 -13 29 0 11 155 93 177 94 7 1 17 -8 23 -19z
m2935 -36 c47 -25 85 -50 85 -55 0 -5 -9 -18 -20 -29 -11 -11 -19 -23 -19 -27
6 -40 -26 -83 -63 -83 -23 0 -168 69 -168 80 0 3 6 15 14 25 14 19 16 19 73
-9 70 -33 98 -32 98 4 0 20 -11 31 -62 58 -59 31 -62 34 -51 57 6 14 15 25 20
25 4 0 46 -21 93 -46z m-2845 -134 c16 -11 34 -36 40 -54 42 -129 -143 -206
-205 -86 -19 37 -19 54 1 95 28 60 111 83 164 45z m2771 -121 c60 -45 109 -84
109 -88 0 -4 -6 -15 -13 -26 -13 -17 -16 -17 -60 13 l-45 32 -11 -32 c-15 -42
-38 -57 -89 -58 -55 0 -110 47 -119 103 -5 33 -2 41 31 71 20 19 36 39 36 43
0 16 24 34 38 28 8 -3 63 -41 123 -86z m-1582 6 c35 -17 83 -73 75 -86 -10
-17 -64 -9 -94 13 -77 57 -170 -5 -157 -105 6 -47 28 -73 73 -87 29 -10 39 -9
67 7 17 11 33 27 35 36 3 14 -5 17 -46 17 -53 0 -65 11 -55 49 5 19 12 21 101
21 l95 0 -7 -46 c-8 -59 -37 -107 -82 -135 -29 -17 -46 -21 -97 -17 -77 5
-116 30 -147 94 -41 83 -9 193 68 234 45 23 131 26 171 5z m373 -24 c29 -26
33 -35 33 -81 0 -44 -4 -55 -28 -76 -17 -14 -46 -26 -77 -30 l-50 -7 0 -53 0
-54 -40 0 -40 0 0 165 0 165 85 0 c79 0 87 -2 117 -29z m-1437 -31 c18 -20 18
-21 -33 -66 -53 -47 -63 -72 -37 -94 16 -14 23 -10 87 43 48 40 48 40 69 21
l21 -19 -78 -72 c-73 -67 -80 -71 -96 -56 -10 9 -18 22 -18 30 0 7 -6 13 -14
13 -21 0 -56 49 -56 79 0 18 17 41 62 83 35 32 65 58 69 58 3 0 14 -9 24 -20z
m2308 -42 c-22 -21 -23 -21 -43 -3 l-20 18 22 24 22 23 20 -20 20 -20 -21 -22z
m152 -100 c41 -39 48 -50 39 -65 -6 -9 -16 -19 -22 -21 -12 -4 -149 116 -151
132 -1 5 7 18 16 28 19 21 13 24 118 -74z m-147 -24 c15 -9 47 -39 70 -67 l44
-50 -22 -21 -21 -21 -47 53 c-38 43 -53 53 -72 50 -41 -5 -36 -39 14 -98 l45
-53 -22 -18 c-22 -19 -22 -18 -89 54 -37 39 -67 77 -68 82 0 14 39 37 50 30 6
-4 10 3 10 14 0 21 44 61 67 61 8 0 27 -7 41 -16z m-2143 -22 c5 -12 18 -22
28 -22 10 0 29 -11 42 -25 72 -71 -23 -207 -122 -174 -23 7 -39 21 -47 41
l-13 29 -38 -46 -38 -47 -20 21 c-14 14 -17 24 -10 33 77 102 181 218 193 216
8 -2 19 -13 25 -26z m1798 -129 l29 -46 21 25 c49 58 100 42 161 -52 38 -60
39 -72 6 -90 -16 -8 -23 -2 -51 43 -34 57 -45 67 -71 67 -33 0 -32 -43 1 -97
17 -28 31 -55 31 -61 0 -11 -39 -37 -45 -30 -2 2 -40 61 -85 132 -76 119 -80
129 -63 142 28 21 36 17 66 -33z m-1555 -33 c41 -25 56 -58 48 -103 -11 -57
-25 -61 -90 -22 -31 19 -59 35 -62 35 -3 0 -4 -12 -2 -27 2 -21 11 -30 33 -37
17 -4 41 -13 55 -18 24 -9 24 -10 5 -24 -45 -33 -125 0 -145 61 -14 43 -8 72
21 109 38 49 85 57 137 26z m314 -57 c67 -25 88 -49 88 -100 0 -34 -6 -50 -26
-70 -23 -23 -31 -25 -84 -20 l-58 5 -12 -44 c-12 -43 -22 -50 -54 -38 -22 9
-22 14 26 157 47 140 46 139 120 110z m1187 -39 c31 -22 13 -39 -41 -39 -49 0
-67 -20 -53 -61 6 -15 20 -33 32 -41 20 -14 24 -12 58 21 46 47 69 48 60 4
-10 -46 -45 -79 -92 -85 -49 -6 -78 8 -103 50 -46 75 -3 167 77 167 21 0 49
-7 62 -16z m-773 -91 c-3 -38 -8 -107 -12 -155 l-6 -88 -30 0 -30 0 7 93 c14
222 13 217 47 217 l30 0 -6 -67z m292 14 c3 -21 9 -27 28 -27 13 0 24 -4 24
-9 0 -5 3 -16 6 -24 3 -10 -3 -17 -20 -21 -22 -5 -24 -10 -20 -44 9 -57 12
-62 39 -62 20 0 25 -5 25 -24 0 -33 -50 -45 -85 -22 -14 9 -25 18 -25 20 0 33
-24 112 -38 122 -16 12 -21 1 -62 -129 -43 -134 -47 -142 -73 -145 -31 -4 -32
-1 -12 60 16 45 16 46 -23 146 l-39 100 23 5 c32 6 38 -1 59 -60 10 -29 22
-50 25 -48 4 2 13 29 20 59 12 53 14 55 49 58 32 3 36 7 39 33 6 52 54 62 60
12z m261 -14 c16 -16 32 -38 36 -50 5 -19 0 -23 -52 -38 -90 -25 -87 -23 -73
-40 17 -21 47 -19 77 5 43 33 65 22 47 -25 -9 -23 -57 -45 -98 -45 -74 0 -126
88 -96 160 26 62 109 79 159 33z m-696 -44 c56 -61 22 -170 -58 -185 -42 -8
-98 18 -114 52 -28 61 -2 142 53 165 36 14 89 1 119 -32z"/>
<path d="M2657 4494 c-11 -11 3 -24 24 -24 12 0 19 5 17 13 -5 14 -31 21 -41
11z"/>
<path d="M3310 4262 c0 -5 9 -17 21 -28 21 -19 21 -19 18 6 -4 23 -39 43 -39
22z"/>
<path d="M3820 3797 c0 -7 7 -22 15 -33 14 -18 14 -18 15 7 0 15 -7 29 -15 33
-9 3 -15 0 -15 -7z"/>
<path d="M2697 4013 c-14 -13 -6 -23 19 -23 22 0 25 2 14 15 -14 16 -23 19
-33 8z"/>
<path d="M2731 2834 c0 -11 3 -14 6 -6 3 7 2 16 -1 19 -3 4 -6 -2 -5 -13z"/>
<path d="M2682 2685 c-18 -38 -19 -45 -6 -45 8 0 12 4 9 10 -10 16 15 52 32
46 14 -6 14 -4 2 11 -7 10 -14 19 -14 20 -1 2 -11 -18 -23 -42z"/>
<path d="M2840 2656 c0 -2 14 -6 30 -8 17 -3 30 -1 30 4 0 4 -13 8 -30 8 -16
0 -30 -2 -30 -4z"/>
<path d="M2620 2585 c-11 -13 -10 -14 4 -9 9 3 16 10 16 15 0 13 -6 11 -20 -6z"/>
<path d="M2811 2574 c0 -11 3 -14 6 -6 3 7 2 16 -1 19 -3 4 -6 -2 -5 -13z"/>
<path d="M2741 2514 c0 -11 3 -14 6 -6 3 7 2 16 -1 19 -3 4 -6 -2 -5 -13z"/>
<path d="M2675 2480 c3 -5 8 -10 11 -10 2 0 4 5 4 10 0 6 -5 10 -11 10 -5 0
-7 -4 -4 -10z"/>
<path d="M2520 1780 c0 -5 5 -10 10 -10 6 0 10 5 10 10 0 6 -4 10 -10 10 -5 0
-10 -4 -10 -10z"/>
<path d="M4076 1984 c-18 -17 -19 -24 -10 -48 9 -23 19 -20 32 9 23 50 10 72
-22 39z"/>
<path d="M1129 1609 c-40 -40 -6 -92 48 -73 34 12 53 55 33 78 -18 22 -56 20
-81 -5z"/>
<path d="M3839 1529 c-15 -30 3 -67 37 -75 33 -8 58 6 62 35 8 52 -75 85 -99
40z"/>
<path d="M2670 1455 c0 -43 1 -45 28 -45 34 0 52 16 52 47 0 24 -26 43 -59 43
-18 0 -21 -6 -21 -45z"/>
<path d="M1471 1224 c-26 -33 -26 -39 -1 -64 26 -26 36 -25 65 5 28 27 30 37
15 66 -15 27 -55 24 -79 -7z"/>
<path d="M1695 1110 c-3 -5 9 -19 27 -30 l33 -20 3 21 c5 32 -47 55 -63 29z"/>
<path d="M2040 1014 c-17 -44 -7 -64 30 -64 13 0 40 30 40 45 0 18 -28 45 -46
45 -8 0 -19 -12 -24 -26z"/>
<path d="M2944 925 c-9 -23 2 -29 37 -19 41 12 42 28 1 32 -22 2 -34 -2 -38
-13z"/>
<path d="M2240 881 c-24 -45 -6 -91 35 -91 30 0 45 19 45 55 0 17 -5 36 -12
43 -18 18 -56 14 -68 -7z"/>
</g>
</svg>
